<svg xmlns="http://www.w3.org/2000/svg" width="1920" height="1080" viewBox="0 0 1920 1080">
<defs>
<linearGradient id="bg" x1="0%" y1="0%" x2="100%" y2="100%">
<stop offset="0%" stop-color="#20203A"/><stop offset="50%" stop-color="#1A1A2E"/><stop offset="100%" stop-color="#12121F"/>
</linearGradient>
<linearGradient id="goldText" x1="0%" y1="0%" x2="0%" y2="100%">
<stop offset="0%" stop-color="#EED98C"/><stop offset="100%" stop-color="#B8912E"/>
</linearGradient>
</defs>
<rect width="1920" height="1080" fill="url(#bg)"/>
<circle cx="1830" cy="60" r="230" fill="none" stroke="#D4AF37" stroke-opacity="0.06" stroke-width="1.5"/>
<circle cx="1830" cy="60" r="150" fill="none" stroke="#D4AF37" stroke-opacity="0.09" stroke-width="1"/>
<text x="140" y="106" font-family="Microsoft YaHei" font-size="17" letter-spacing="5" fill="#D4AF37" fill-opacity="0.75">RONGCE · GOVERNMENT AUDIT</text>
<text x="1780" y="106" text-anchor="end" font-family="Microsoft YaHei" font-size="17" letter-spacing="2" fill="#6A6F80">04 / 10</text>
<rect x="140" y="162" width="6" height="48" fill="url(#goldText)"/>
<text x="172" y="202" font-family="Microsoft YaHei" font-size="46" font-weight="700" fill="#F5F2EC">政府审计业务线</text>
<text x="174" y="240" font-family="Microsoft YaHei" font-size="16" letter-spacing="5" fill="#8A90A3">GOVERNMENT AUDIT SERVICES</text>
<line x1="520" y1="330" x2="520" y2="900" stroke="#D4AF37" stroke-opacity="0.12"/>
<line x1="940" y1="330" x2="940" y2="900" stroke="#D4AF37" stroke-opacity="0.12"/>
<line x1="1360" y1="330" x2="1360" y2="900" stroke="#D4AF37" stroke-opacity="0.12"/>
<g>
<text x="140" y="420" font-family="Microsoft YaHei" font-size="86" font-weight="700" fill="none" stroke="#D4AF37" stroke-opacity="0.55" stroke-width="1.5">01</text>
<text x="140" y="492" font-family="Microsoft YaHei" font-size="30" font-weight="700" fill="#F5F2EC">绩效评价</text>
<rect x="142" y="518" width="44" height="3" fill="#D4AF37" fill-opacity="0.7"/>
<text font-family="Microsoft YaHei" font-size="18" fill="#A9AEC0">
<tspan x="140" y="586">— 事前绩效评估</tspan>
<tspan x="140" y="630">— 事中绩效监控</tspan>
<tspan x="140" y="674">— 事后绩效评价</tspan>
<tspan x="140" y="718">— 政策与项目全覆盖</tspan>
</text>
</g>
<g>
<text x="560" y="420" font-family="Microsoft YaHei" font-size="86" font-weight="700" fill="none" stroke="#D4AF37" stroke-opacity="0.55" stroke-width="1.5">02</text>
<text x="560" y="492" font-family="Microsoft YaHei" font-size="30" font-weight="700" fill="#F5F2EC">资产清查</text>
<rect x="562" y="518" width="44" height="3" fill="#D4AF37" fill-opacity="0.7"/>
<text font-family="Microsoft YaHei" font-size="18" fill="#A9AEC0">
<tspan x="560" y="586">— 固定资产盘点</tspan>
<tspan x="560" y="630">— 往来款项清理</tspan>
<tspan x="560" y="674">— 专项资金清理</tspan>
<tspan x="560" y="718">— 账实核对报告</tspan>
</text>
</g>
<g>
<text x="980" y="420" font-family="Microsoft YaHei" font-size="86" font-weight="700" fill="none" stroke="#D4AF37" stroke-opacity="0.55" stroke-width="1.5">03</text>
<text x="980" y="492" font-family="Microsoft YaHei" font-size="30" font-weight="700" fill="#F5F2EC">专项债申报</text>
<rect x="982" y="518" width="44" height="3" fill="#D4AF37" fill-opacity="0.7"/>
<text font-family="Microsoft YaHei" font-size="18" fill="#A9AEC0">
<tspan x="980" y="586">— 项目谋划包装</tspan>
<tspan x="980" y="630">— 申报方案编制</tspan>
<tspan x="980" y="674">— 评审对接辅导</tspan>
<tspan x="980" y="718">— 资金使用监管</tspan>
</text>
</g>
<g>
<text x="1400" y="420" font-family="Microsoft YaHei" font-size="86" font-weight="700" fill="none" stroke="#D4AF37" stroke-opacity="0.55" stroke-width="1.5">04</text>
<text x="1400" y="492" font-family="Microsoft YaHei" font-size="30" font-weight="700" fill="#F5F2EC">监督检查</text>
<rect x="1402" y="518" width="44" height="3" fill="#D4AF37" fill-opacity="0.7"/>
<text font-family="Microsoft YaHei" font-size="18" fill="#A9AEC0">
<tspan x="1400" y="586">— 财政监督检查</tspan>
<tspan x="1400" y="630">— 会计信息质量检查</tspan>
<tspan x="1400" y="674">— 内部控制评价</tspan>
<tspan x="1400" y="718">— 整改跟踪问效</tspan>
</text>
</g>
<text x="960" y="870" text-anchor="middle" font-family="Microsoft YaHei" font-size="20" letter-spacing="4" fill="#D4AF37" fill-opacity="0.85">从资金到资产 · 从项目到政策 · 全维度守护财政资金安全</text>
<line x1="140" y1="1008" x2="1780" y2="1008" stroke="#D4AF37" stroke-opacity="0.15"/>
<text x="140" y="1042" font-family="Microsoft YaHei" font-size="15" fill="#6A6F80">四川融策会计师事务所 · 四川融策工程咨询有限公司</text>
<text x="1780" y="1042" text-anchor="end" font-family="Microsoft YaHei" font-size="15" letter-spacing="3" fill="#D4AF37" fill-opacity="0.7">SICHUAN RONGCE</text>
</svg>
