<svg xmlns="http://www.w3.org/2000/svg" width="1920" height="1080" viewBox="0 0 1920 1080">
<defs>
<linearGradient id="bg" x1="0%" y1="0%" x2="100%" y2="100%">
<stop offset="0%" stop-color="#20203A"/><stop offset="50%" stop-color="#1A1A2E"/><stop offset="100%" stop-color="#12121F"/>
</linearGradient>
<linearGradient id="goldLine" x1="0%" y1="0%" x2="100%" y2="0%">
<stop offset="0%" stop-color="#D4AF37" stop-opacity="0"/><stop offset="50%" stop-color="#E8CD7F"/><stop offset="100%" stop-color="#D4AF37" stop-opacity="0"/>
</linearGradient>
<linearGradient id="goldText" x1="0%" y1="0%" x2="0%" y2="100%">
<stop offset="0%" stop-color="#EED98C"/><stop offset="100%" stop-color="#B8912E"/>
</linearGradient>
<radialGradient id="glow" cx="50%" cy="50%" r="50%">
<stop offset="0%" stop-color="#D4AF37" stop-opacity="0.10"/><stop offset="100%" stop-color="#D4AF37" stop-opacity="0"/>
</radialGradient>
</defs>
<rect width="1920" height="1080" fill="url(#bg)"/>
<ellipse cx="960" cy="480" rx="850" ry="460" fill="url(#glow)"/>
<circle cx="140" cy="140" r="260" fill="none" stroke="#D4AF37" stroke-opacity="0.06" stroke-width="1.5"/>
<circle cx="140" cy="140" r="180" fill="none" stroke="#D4AF37" stroke-opacity="0.09" stroke-width="1"/>
<circle cx="1790" cy="950" r="280" fill="none" stroke="#D4AF37" stroke-opacity="0.06" stroke-width="1.5"/>
<circle cx="1790" cy="950" r="190" fill="none" stroke="#D4AF37" stroke-opacity="0.09" stroke-width="1"/>
<path d="M 70 120 L 70 70 L 120 70" stroke="#D4AF37" stroke-opacity="0.45" fill="none" stroke-width="2"/>
<path d="M 1800 70 L 1850 70 L 1850 120" stroke="#D4AF37" stroke-opacity="0.45" fill="none" stroke-width="2"/>
<path d="M 70 960 L 70 1010 L 120 1010" stroke="#D4AF37" stroke-opacity="0.45" fill="none" stroke-width="2"/>
<path d="M 1850 960 L 1850 1010 L 1800 1010" stroke="#D4AF37" stroke-opacity="0.45" fill="none" stroke-width="2"/>
<text x="1780" y="106" text-anchor="end" font-family="Microsoft YaHei" font-size="17" letter-spacing="2" fill="#6A6F80">10 / 10</text>
<g transform="translate(960,270)">
<rect x="-6" y="-6" width="12" height="12" transform="rotate(45)" fill="#D4AF37"/>
<rect x="-180" y="-0.6" width="154" height="1.2" fill="url(#goldLine)"/>
<rect x="26" y="-0.6" width="154" height="1.2" fill="url(#goldLine)"/>
</g>
<text x="960" y="344" text-anchor="middle" font-family="Microsoft YaHei" font-size="19" letter-spacing="9" fill="#D4AF37" fill-opacity="0.8">CONTACT US</text>
<text x="960" y="470" text-anchor="middle" font-family="Microsoft YaHei" font-size="72" font-weight="700" letter-spacing="10" fill="#F5F2EC">期待与您合作</text>
<text x="960" y="546" text-anchor="middle" font-family="Microsoft YaHei" font-size="22" letter-spacing="5" fill="#9DA3B6">专业价值 · 值得托付</text>
<g>
<rect x="360" y="640" width="560" height="120" rx="16" fill="#FFFFFF" fill-opacity="0.03" stroke="#D4AF37" stroke-opacity="0.25"/>
<text x="420" y="692" font-family="Microsoft YaHei" font-size="16" letter-spacing="3" fill="#D4AF37" fill-opacity="0.8">地址 ADDRESS</text>
<text x="420" y="732" font-family="Microsoft YaHei" font-size="21" fill="#F5F2EC">四川省成都市高新区</text>
</g>
<g>
<rect x="1000" y="640" width="560" height="120" rx="16" fill="#FFFFFF" fill-opacity="0.03" stroke="#D4AF37" stroke-opacity="0.25"/>
<text x="1060" y="692" font-family="Microsoft YaHei" font-size="16" letter-spacing="3" fill="#D4AF37" fill-opacity="0.8">电话 TEL</text>
<text x="1060" y="732" font-family="Microsoft YaHei" font-size="21" fill="#F5F2EC">028 - XXXX XXXX</text>
</g>
<g>
<rect x="360" y="790" width="560" height="120" rx="16" fill="#FFFFFF" fill-opacity="0.03" stroke="#D4AF37" stroke-opacity="0.25"/>
<text x="420" y="842" font-family="Microsoft YaHei" font-size="16" letter-spacing="3" fill="#D4AF37" fill-opacity="0.8">邮箱 EMAIL</text>
<text x="420" y="882" font-family="Microsoft YaHei" font-size="21" fill="#F5F2EC">rongce@rongcecpa.com</text>
</g>
<g>
<rect x="1000" y="790" width="560" height="120" rx="16" fill="#FFFFFF" fill-opacity="0.03" stroke="#D4AF37" stroke-opacity="0.25"/>
<text x="1060" y="842" font-family="Microsoft YaHei" font-size="16" letter-spacing="3" fill="#D4AF37" fill-opacity="0.8">网站 WEB</text>
<text x="1060" y="882" font-family="Microsoft YaHei" font-size="21" fill="#F5F2EC">www.rongcecpa.com</text>
</g>
<text x="960" y="1000" text-anchor="middle" font-family="Microsoft YaHei" font-size="15" letter-spacing="4" fill="#6A6F80">四川融策会计师事务所 · 四川融策工程咨询有限公司 © 2026</text>
</svg>
